# Blender 3.3.1
# www.blender.org
mtllib skeleton3.mtl
o body.001
v 0.193014 0.279031 0.319965
v 0.193014 0.240727 0.102729
v 0.193014 -0.372677 0.434879
v 0.193014 -0.410981 0.217643
v -0.248161 0.240727 0.102729
v -0.248161 0.279031 0.319965
v -0.248161 -0.410981 0.217643
v -0.248161 -0.372677 0.434879
v -0.248161 0.240727 0.102729
v 0.193014 0.240727 0.102729
v -0.248161 0.279031 0.319965
v 0.193014 0.279031 0.319965
v -0.248161 -0.372677 0.434879
v 0.193014 -0.372677 0.434879
v -0.248161 -0.410981 0.217643
v 0.193014 -0.410981 0.217643
v -0.248161 0.279031 0.319965
v 0.193014 0.279031 0.319965
v -0.248161 -0.372677 0.434879
v 0.193014 -0.372677 0.434879
v 0.193014 0.240727 0.102729
v -0.248161 0.240727 0.102729
v 0.193014 -0.410981 0.217643
v -0.248161 -0.410981 0.217643
vn 1.0000 -0.0000 -0.0000
vn -1.0000 -0.0000 -0.0000
vn -0.0000 0.9848 -0.1736
vn -0.0000 -0.9848 0.1736
vn -0.0000 0.1736 0.9848
vn -0.0000 -0.1736 -0.9848
vt 0.125000 0.312500
vt 0.187500 0.312500
vt 0.125000 0.500000
vt 0.187500 0.500000
vt 0.187500 0.312500
vt 0.250000 0.312500
vt 0.187500 0.500000
vt 0.250000 0.500000
vt 0.500000 0.062500
vt 0.375000 0.062500
vt 0.500000 0.000000
vt 0.375000 0.000000
vt 0.500000 0.062500
vt 0.375000 0.062500
vt 0.500000 0.125000
vt 0.375000 0.125000
vt 0.125000 0.000000
vt 0.250000 0.000000
vt 0.125000 0.187500
vt 0.250000 0.187500
vt 0.000000 0.000000
vt 0.125000 0.000000
vt 0.000000 0.187500
vt 0.125000 0.187500
s 0
usemtl Material_0.004
f 1/1/1 3/3/1 2/2/1
f 3/3/1 4/4/1 2/2/1
f 5/5/2 7/7/2 6/6/2
f 7/7/2 8/8/2 6/6/2
f 9/9/3 11/11/3 10/10/3
f 11/11/3 12/12/3 10/10/3
f 13/13/4 15/15/4 14/14/4
f 15/15/4 16/16/4 14/14/4
f 17/17/5 19/19/5 18/18/5
f 19/19/5 20/20/5 18/18/5
f 21/21/6 23/23/6 22/22/6
f 23/23/6 24/24/6 22/22/6
o left_arm.001
v -0.248161 0.227112 0.292640
v -0.248161 0.269319 0.190742
v -0.248161 -0.384277 0.039395
v -0.248161 -0.342069 -0.062503
v -0.358454 0.269319 0.190742
v -0.358454 0.227112 0.292640
v -0.358454 -0.342069 -0.062503
v -0.358454 -0.384277 0.039395
v -0.358454 0.269319 0.190742
v -0.248161 0.269319 0.190742
v -0.358454 0.227112 0.292640
v -0.248161 0.227112 0.292640
v -0.358454 -0.384277 0.039395
v -0.248161 -0.384277 0.039395
v -0.358454 -0.342069 -0.062503
v -0.248161 -0.342069 -0.062503
v -0.358454 0.227112 0.292640
v -0.248161 0.227112 0.292640
v -0.358454 -0.384277 0.039395
v -0.248161 -0.384277 0.039395
v -0.248161 0.269319 0.190742
v -0.358454 0.269319 0.190742
v -0.248161 -0.342069 -0.062503
v -0.358454 -0.342069 -0.062503
vn 1.0000 -0.0000 -0.0000
vn -1.0000 -0.0000 -0.0000
vn -0.0000 0.9239 0.3827
vn -0.0000 -0.9239 -0.3827
vn -0.0000 -0.3827 0.9239
vn -0.0000 0.3827 -0.9239
vt 0.250000 0.375000
vt 0.281250 0.375000
vt 0.250000 0.562500
vt 0.281250 0.562500
vt 0.312500 0.375000
vt 0.343750 0.375000
vt 0.312500 0.562500
vt 0.343750 0.562500
vt 0.531250 0.031250
vt 0.500000 0.031250
vt 0.531250 0.000000
vt 0.500000 0.000000
vt 0.531250 0.031250
vt 0.500000 0.031250
vt 0.531250 0.062500
vt 0.500000 0.062500
vt 0.281250 0.375000
vt 0.312500 0.375000
vt 0.281250 0.562500
vt 0.312500 0.562500
vt 0.375000 0.125000
vt 0.406250 0.125000
vt 0.375000 0.312500
vt 0.406250 0.312500
s 0
usemtl Material_0.004
f 25/25/7 27/27/7 26/26/7
f 27/27/7 28/28/7 26/26/7
f 29/29/8 31/31/8 30/30/8
f 31/31/8 32/32/8 30/30/8
f 33/33/9 35/35/9 34/34/9
f 35/35/9 36/36/9 34/34/9
f 37/37/10 39/39/10 38/38/10
f 39/39/10 40/40/10 38/38/10
f 41/41/11 43/43/11 42/42/11
f 43/43/11 44/44/11 42/42/11
f 45/45/12 47/47/12 46/46/12
f 47/47/12 48/48/12 46/46/12
o right_arm.001
v 0.303307 0.241999 0.284472
v 0.303307 0.261151 0.175854
v 0.303307 -0.409709 0.169559
v 0.303307 -0.390557 0.060941
v 0.193014 0.261151 0.175854
v 0.193014 0.241999 0.284472
v 0.193014 -0.390557 0.060941
v 0.193014 -0.409709 0.169559
v 0.193014 0.261151 0.175854
v 0.303307 0.261151 0.175854
v 0.193014 0.241999 0.284472
v 0.303307 0.241999 0.284472
v 0.193014 -0.409709 0.169559
v 0.303307 -0.409709 0.169559
v 0.193014 -0.390557 0.060941
v 0.303307 -0.390557 0.060941
v 0.193014 0.241999 0.284472
v 0.303307 0.241999 0.284472
v 0.193014 -0.409709 0.169559
v 0.303307 -0.409709 0.169559
v 0.303307 0.261151 0.175854
v 0.193014 0.261151 0.175854
v 0.303307 -0.390557 0.060941
v 0.193014 -0.390557 0.060941
vn 1.0000 -0.0000 -0.0000
vn -1.0000 -0.0000 -0.0000
vn -0.0000 0.9848 0.1736
vn -0.0000 -0.9848 -0.1736
vn -0.0000 -0.1736 0.9848
vn -0.0000 0.1736 -0.9848
vt 0.343750 0.375000
vt 0.375000 0.375000
vt 0.343750 0.562500
vt 0.375000 0.562500
vt 0.406250 0.312500
vt 0.437500 0.312500
vt 0.406250 0.500000
vt 0.437500 0.500000
vt 0.531250 0.093750
vt 0.500000 0.093750
vt 0.531250 0.062500
vt 0.500000 0.062500
vt 0.531250 0.093750
vt 0.500000 0.093750
vt 0.531250 0.125000
vt 0.500000 0.125000
vt 0.406250 0.125000
vt 0.437500 0.125000
vt 0.406250 0.312500
vt 0.437500 0.312500
vt 0.375000 0.312500
vt 0.406250 0.312500
vt 0.375000 0.500000
vt 0.406250 0.500000
s 0
usemtl Material_0.004
f 49/49/13 51/51/13 50/50/13
f 51/51/13 52/52/13 50/50/13
f 53/53/14 55/55/14 54/54/14
f 55/55/14 56/56/14 54/54/14
f 57/57/15 59/59/15 58/58/15
f 59/59/15 60/60/15 58/58/15
f 61/61/16 63/63/16 62/62/16
f 63/63/16 64/64/16 62/62/16
f 65/65/17 67/67/17 66/66/17
f 67/67/17 68/68/17 66/66/17
f 69/69/18 71/71/18 70/70/18
f 71/71/18 72/72/18 70/70/18
o left_leg.001
v -0.086046 -0.492069 0.256873
v -0.086046 -0.381775 0.256873
v -0.312382 -0.492069 -0.364980
v -0.312382 -0.381775 -0.364980
v -0.189688 -0.381775 0.294595
v -0.189688 -0.492069 0.294595
v -0.416024 -0.381775 -0.327257
v -0.416024 -0.492069 -0.327257
v -0.189688 -0.381775 0.294595
v -0.086046 -0.381775 0.256873
v -0.189688 -0.492069 0.294595
v -0.086046 -0.492069 0.256873
v -0.416024 -0.492069 -0.327257
v -0.312382 -0.492069 -0.364980
v -0.416024 -0.381775 -0.327257
v -0.312382 -0.381775 -0.364980
v -0.189688 -0.492069 0.294595
v -0.086046 -0.492069 0.256873
v -0.416024 -0.492069 -0.327257
v -0.312382 -0.492069 -0.364980
v -0.086046 -0.381775 0.256873
v -0.189688 -0.381775 0.294595
v -0.312382 -0.381775 -0.364980
v -0.416024 -0.381775 -0.327257
vn 0.9397 -0.0000 -0.3420
vn -0.9397 -0.0000 0.3420
vn 0.3420 -0.0000 0.9397
vn -0.3420 -0.0000 -0.9397
vn -0.0000 -1.0000 -0.0000
vn -0.0000 1.0000 -0.0000
vt 0.031250 0.437500
vt 0.062500 0.437500
vt 0.031250 0.625000
vt 0.062500 0.625000
vt 0.093750 0.437500
vt 0.125000 0.437500
vt 0.093750 0.625000
vt 0.125000 0.625000
vt 0.156250 0.531250
vt 0.125000 0.531250
vt 0.156250 0.500000
vt 0.125000 0.500000
vt 0.531250 0.125000
vt 0.500000 0.125000
vt 0.531250 0.156250
vt 0.500000 0.156250
vt 0.062500 0.437500
vt 0.093750 0.437500
vt 0.062500 0.625000
vt 0.093750 0.625000
vt 0.000000 0.437500
vt 0.031250 0.437500
vt 0.000000 0.625000
vt 0.031250 0.625000
s 0
usemtl Material_0.004
f 73/73/19 75/75/19 74/74/19
f 75/75/19 76/76/19 74/74/19
f 77/77/20 79/79/20 78/78/20
f 79/79/20 80/80/20 78/78/20
f 81/81/21 83/83/21 82/82/21
f 83/83/21 84/84/21 82/82/21
f 85/85/22 87/87/22 86/86/22
f 87/87/22 88/88/22 86/86/22
f 89/89/23 91/91/23 90/90/23
f 91/91/23 92/92/23 90/90/23
f 93/93/24 95/95/24 94/94/24
f 95/95/24 96/96/24 94/94/24
o right_leg.001
v 0.106172 -0.492069 0.322540
v 0.106172 -0.381775 0.322540
v 0.411740 -0.492069 -0.264449
v 0.411740 -0.381775 -0.264449
v 0.008340 -0.381775 0.271612
v 0.008340 -0.492069 0.271612
v 0.313908 -0.381775 -0.315377
v 0.313908 -0.492069 -0.315377
v 0.008340 -0.381775 0.271612
v 0.106172 -0.381775 0.322540
v 0.008340 -0.492069 0.271612
v 0.106172 -0.492069 0.322540
v 0.313908 -0.492069 -0.315377
v 0.411740 -0.492069 -0.264449
v 0.313908 -0.381775 -0.315377
v 0.411740 -0.381775 -0.264449
v 0.008340 -0.492069 0.271612
v 0.106172 -0.492069 0.322540
v 0.313908 -0.492069 -0.315377
v 0.411740 -0.492069 -0.264449
v 0.106172 -0.381775 0.322540
v 0.008340 -0.381775 0.271612
v 0.411740 -0.381775 -0.264449
v 0.313908 -0.381775 -0.315377
vn 0.8870 -0.0000 0.4617
vn -0.8870 -0.0000 -0.4617
vn -0.4617 -0.0000 0.8870
vn 0.4617 -0.0000 -0.8870
vn -0.0000 -1.0000 -0.0000
vn -0.0000 1.0000 -0.0000
vt 0.437500 0.312500
vt 0.468750 0.312500
vt 0.437500 0.500000
vt 0.468750 0.500000
vt 0.468750 0.312500
vt 0.500000 0.312500
vt 0.468750 0.500000
vt 0.500000 0.500000
vt 0.187500 0.531250
vt 0.156250 0.531250
vt 0.187500 0.500000
vt 0.156250 0.500000
vt 0.531250 0.156250
vt 0.500000 0.156250
vt 0.531250 0.187500
vt 0.500000 0.187500
vt 0.468750 0.125000
vt 0.500000 0.125000
vt 0.468750 0.312500
vt 0.500000 0.312500
vt 0.437500 0.125000
vt 0.468750 0.125000
vt 0.437500 0.312500
vt 0.468750 0.312500
s 0
usemtl Material_0.004
f 97/97/25 99/99/25 98/98/25
f 99/99/25 100/100/25 98/98/25
f 101/101/26 103/103/26 102/102/26
f 103/103/26 104/104/26 102/102/26
f 105/105/27 107/107/27 106/106/27
f 107/107/27 108/108/27 106/106/27
f 109/109/28 111/111/28 110/110/28
f 111/111/28 112/112/28 110/110/28
f 113/113/29 115/115/29 114/114/29
f 115/115/29 116/116/29 114/114/29
f 117/117/30 119/119/30 118/118/30
f 119/119/30 120/120/30 118/118/30
o head.001
v 0.064211 0.764611 0.198750
v 0.218227 0.552479 -0.156094
v 0.071575 0.387410 0.427443
v 0.225591 0.175279 0.072599
v -0.195125 0.466718 -0.284235
v -0.349141 0.678849 0.070609
v -0.187761 0.089517 -0.055542
v -0.341777 0.301649 0.299302
v -0.195125 0.466718 -0.284235
v 0.218227 0.552479 -0.156094
v -0.349141 0.678849 0.070609
v 0.064211 0.764611 0.198750
v -0.341777 0.301649 0.299302
v 0.071575 0.387410 0.427443
v -0.187761 0.089517 -0.055542
v 0.225591 0.175279 0.072599
v -0.349141 0.678849 0.070609
v 0.064211 0.764611 0.198750
v -0.341777 0.301649 0.299302
v 0.071575 0.387410 0.427443
v 0.218227 0.552479 -0.156094
v -0.195125 0.466718 -0.284235
v 0.225591 0.175279 0.072599
v -0.187761 0.089517 -0.055542
vn 0.9369 0.1944 0.2905
vn -0.9369 -0.1944 -0.2905
vn -0.0167 0.8550 -0.5184
vn 0.0167 -0.8550 0.5184
vn -0.3491 0.4808 0.8043
vn 0.3491 -0.4808 -0.8043
vt 0.125000 0.187500
vt 0.250000 0.187500
vt 0.125000 0.312500
vt 0.250000 0.312500
vt 0.250000 0.125000
vt 0.375000 0.125000
vt 0.250000 0.250000
vt 0.375000 0.250000
vt 0.375000 0.375000
vt 0.250000 0.375000
vt 0.375000 0.250000
vt 0.250000 0.250000
vt 0.125000 0.312500
vt 0.000000 0.312500
vt 0.125000 0.437500
vt 0.000000 0.437500
vt 0.250000 0.000000
vt 0.375000 0.000000
vt 0.250000 0.125000
vt 0.375000 0.125000
vt 0.000000 0.187500
vt 0.125000 0.187500
vt 0.000000 0.312500
vt 0.125000 0.312500
s 0
usemtl Material_0.004
f 121/121/31 123/123/31 122/122/31
f 123/123/31 124/124/31 122/122/31
f 125/125/32 127/127/32 126/126/32
f 127/127/32 128/128/32 126/126/32
f 129/129/33 131/131/33 130/130/33
f 131/131/33 132/132/33 130/130/33
f 133/133/34 135/135/34 134/134/34
f 135/135/34 136/136/34 134/134/34
f 137/137/35 139/139/35 138/138/35
f 139/139/35 140/140/35 138/138/35
f 141/141/36 143/143/36 142/142/36
f 143/143/36 144/144/36 142/142/36
