# Blender 3.3.1
# www.blender.org
mtllib skeleton2.mtl
o right_leg.001
v 0.295310 -0.378163 0.419723
v 0.582322 -0.378163 -0.273187
v 0.295310 -0.503163 0.419723
v 0.582322 -0.503163 -0.273187
v 0.466837 -0.378163 -0.321022
v 0.179825 -0.378163 0.371887
v 0.466837 -0.503163 -0.321022
v 0.179825 -0.503163 0.371887
v 0.466837 -0.378163 -0.321022
v 0.582322 -0.378163 -0.273187
v 0.179825 -0.378163 0.371887
v 0.295310 -0.378163 0.419723
v 0.179825 -0.503163 0.371887
v 0.295310 -0.503163 0.419723
v 0.466837 -0.503163 -0.321022
v 0.582322 -0.503163 -0.273187
v 0.179825 -0.378163 0.371887
v 0.295310 -0.378163 0.419723
v 0.179825 -0.503163 0.371887
v 0.295310 -0.503163 0.419723
v 0.582322 -0.378163 -0.273187
v 0.466837 -0.378163 -0.321022
v 0.582322 -0.503163 -0.273187
v 0.466837 -0.503163 -0.321022
vn 0.9239 -0.0000 0.3827
vn -0.9239 -0.0000 -0.3827
vn -0.0000 1.0000 -0.0000
vn -0.0000 -1.0000 -0.0000
vn -0.3827 -0.0000 0.9239
vn 0.3827 -0.0000 -0.9239
vt 0.250000 0.500000
vt 0.625000 0.500000
vt 0.250000 0.562500
vt 0.625000 0.562500
vt 0.500000 0.250000
vt 0.875000 0.250000
vt 0.500000 0.312500
vt 0.875000 0.312500
vt 0.312500 0.937500
vt 0.250000 0.937500
vt 0.312500 0.562500
vt 0.250000 0.562500
vt 0.375000 0.562500
vt 0.312500 0.562500
vt 0.375000 0.937500
vt 0.312500 0.937500
vt 0.437500 0.625000
vt 0.500000 0.625000
vt 0.437500 0.687500
vt 0.500000 0.687500
vt 0.500000 0.625000
vt 0.562500 0.625000
vt 0.500000 0.687500
vt 0.562500 0.687500
s 0
usemtl Material_0.002
f 1/1/1 3/3/1 2/2/1
f 3/3/1 4/4/1 2/2/1
f 5/5/2 7/7/2 6/6/2
f 7/7/2 8/8/2 6/6/2
f 9/9/3 11/11/3 10/10/3
f 11/11/3 12/12/3 10/10/3
f 13/13/4 15/15/4 14/14/4
f 15/15/4 16/16/4 14/14/4
f 17/17/5 19/19/5 18/18/5
f 19/19/5 20/20/5 18/18/5
f 21/21/6 23/23/6 22/22/6
f 23/23/6 24/24/6 22/22/6
o left_leg.001
v 0.392268 -0.362538 -0.363742
v 0.392268 -0.362538 -0.488742
v 0.392268 -0.487538 -0.363742
v 0.392268 -0.487538 -0.488742
v -0.357732 -0.362538 -0.488742
v -0.357732 -0.362538 -0.363742
v -0.357732 -0.487538 -0.488742
v -0.357732 -0.487538 -0.363742
v -0.357732 -0.362538 -0.488742
v 0.392268 -0.362538 -0.488742
v -0.357732 -0.362538 -0.363742
v 0.392268 -0.362538 -0.363742
v -0.357732 -0.487538 -0.363742
v 0.392268 -0.487538 -0.363742
v -0.357732 -0.487538 -0.488742
v 0.392268 -0.487538 -0.488742
v -0.357732 -0.362538 -0.363742
v 0.392268 -0.362538 -0.363742
v -0.357732 -0.487538 -0.363742
v 0.392268 -0.487538 -0.363742
v 0.392268 -0.362538 -0.488742
v -0.357732 -0.362538 -0.488742
v 0.392268 -0.487538 -0.488742
v -0.357732 -0.487538 -0.488742
vn 1.0000 -0.0000 -0.0000
vn -1.0000 -0.0000 -0.0000
vn -0.0000 1.0000 -0.0000
vn -0.0000 -1.0000 -0.0000
vn -0.0000 -0.0000 1.0000
vn -0.0000 -0.0000 -1.0000
vt 0.500000 0.625000
vt 0.562500 0.625000
vt 0.500000 0.687500
vt 0.562500 0.687500
vt 0.500000 0.500000
vt 0.562500 0.500000
vt 0.500000 0.562500
vt 0.562500 0.562500
vt 0.875000 0.500000
vt 0.500000 0.500000
vt 0.875000 0.437500
vt 0.500000 0.437500
vt 0.875000 0.250000
vt 0.500000 0.250000
vt 0.875000 0.312500
vt 0.500000 0.312500
vt 0.500000 0.375000
vt 0.875000 0.375000
vt 0.500000 0.437500
vt 0.875000 0.437500
vt 0.500000 0.312500
vt 0.875000 0.312500
vt 0.500000 0.375000
vt 0.875000 0.375000
s 0
usemtl Material_0.002
f 25/25/7 27/27/7 26/26/7
f 27/27/7 28/28/7 26/26/7
f 29/29/8 31/31/8 30/30/8
f 31/31/8 32/32/8 30/30/8
f 33/33/9 35/35/9 34/34/9
f 35/35/9 36/36/9 34/34/9
f 37/37/10 39/39/10 38/38/10
f 39/39/10 40/40/10 38/38/10
f 41/41/11 43/43/11 42/42/11
f 43/43/11 44/44/11 42/42/11
f 45/45/12 47/47/12 46/46/12
f 47/47/12 48/48/12 46/46/12
o head.001
v 0.120747 -0.001025 0.372180
v 0.312089 -0.001025 -0.089760
v 0.120747 -0.501025 0.372180
v 0.312089 -0.501025 -0.089760
v -0.149851 -0.001025 -0.281102
v -0.341193 -0.001025 0.180838
v -0.149851 -0.501025 -0.281102
v -0.341193 -0.501025 0.180838
v -0.149851 -0.001025 -0.281102
v 0.312089 -0.001025 -0.089760
v -0.341193 -0.001025 0.180838
v 0.120747 -0.001025 0.372180
v -0.341193 -0.501025 0.180838
v 0.120747 -0.501025 0.372180
v -0.149851 -0.501025 -0.281102
v 0.312089 -0.501025 -0.089760
v -0.341193 -0.001025 0.180838
v 0.120747 -0.001025 0.372180
v -0.341193 -0.501025 0.180838
v 0.120747 -0.501025 0.372180
v 0.312089 -0.001025 -0.089760
v -0.149851 -0.001025 -0.281102
v 0.312089 -0.501025 -0.089760
v -0.149851 -0.501025 -0.281102
vn 0.9239 -0.0000 0.3827
vn -0.9239 -0.0000 -0.3827
vn -0.0000 1.0000 -0.0000
vn -0.0000 -1.0000 -0.0000
vn -0.3827 -0.0000 0.9239
vn 0.3827 -0.0000 -0.9239
vt 0.000000 0.250000
vt 0.250000 0.250000
vt 0.000000 0.500000
vt 0.250000 0.500000
vt 0.250000 0.250000
vt 0.500000 0.250000
vt 0.250000 0.500000
vt 0.500000 0.500000
vt 0.250000 0.750000
vt 0.000000 0.750000
vt 0.250000 0.500000
vt 0.000000 0.500000
vt 0.750000 0.000000
vt 0.500000 0.000000
vt 0.750000 0.250000
vt 0.500000 0.250000
vt 0.250000 0.000000
vt 0.500000 0.000000
vt 0.250000 0.250000
vt 0.500000 0.250000
vt 0.000000 0.000000
vt 0.250000 0.000000
vt 0.000000 0.250000
vt 0.250000 0.250000
s 0
usemtl Material_0.002
f 49/49/13 51/51/13 50/50/13
f 51/51/13 52/52/13 50/50/13
f 53/53/14 55/55/14 54/54/14
f 55/55/14 56/56/14 54/54/14
f 57/57/15 59/59/15 58/58/15
f 59/59/15 60/60/15 58/58/15
f 61/61/16 63/63/16 62/62/16
f 63/63/16 64/64/16 62/62/16
f 65/65/17 67/67/17 66/66/17
f 67/67/17 68/68/17 66/66/17
f 69/69/18 71/71/18 70/70/18
f 71/71/18 72/72/18 70/70/18
