# Blender 3.3.1
# www.blender.org
mtllib skeleton.mtl
o Skeleton
v -0.260269 -0.225085 0.808884
v 0.260269 -0.225085 0.808884
v -0.260269 -0.485355 0.809074
v 0.260269 -0.485355 0.809074
v -0.260269 -0.225656 0.028076
v 0.260269 -0.225656 0.028076
v -0.260269 -0.485926 0.028265
v 0.260269 -0.485926 0.028265
v -0.260269 -0.095522 0.027981
v 0.260269 -0.095522 0.027981
v -0.260269 -0.616060 0.028360
v 0.260269 -0.616060 0.028360
v -0.260269 -0.095903 -0.492558
v 0.260269 -0.095903 -0.492558
v -0.260269 -0.616442 -0.492179
v 0.260269 -0.616442 -0.492179
v -0.390404 -0.290153 0.808930
v -0.260269 -0.290153 0.808930
v -0.390404 -0.420287 0.809027
v -0.260269 -0.420287 0.809027
v -0.390404 -0.290724 0.028122
v -0.260269 -0.290724 0.028122
v -0.390404 -0.420858 0.028219
v -0.260269 -0.420858 0.028219
v 0.390404 -0.290153 0.808930
v 0.260269 -0.290153 0.808930
v 0.390404 -0.420287 0.809027
v 0.260269 -0.420287 0.809027
v 0.390404 -0.290724 0.028122
v 0.260269 -0.290724 0.028122
v 0.390404 -0.420858 0.028219
v 0.260269 -0.420858 0.028219
v 0.195202 -0.289581 1.589738
v 0.065067 -0.289581 1.589738
v 0.195202 -0.419716 1.589836
v 0.065067 -0.419716 1.589836
v 0.195202 -0.290153 0.808930
v 0.065067 -0.290153 0.808930
v 0.195202 -0.420287 0.809027
v 0.065067 -0.420287 0.809027
v -0.195202 -0.289581 1.589738
v -0.065067 -0.289581 1.589738
v -0.195202 -0.419716 1.589836
v -0.065067 -0.419716 1.589836
v -0.195202 -0.290153 0.808930
v -0.065067 -0.290153 0.808930
v -0.195202 -0.420287 0.809027
v -0.065067 -0.420287 0.809027
vn -0.0000 0.0007 1.0000
vn -0.0000 -0.0007 -1.0000
vn -0.0000 1.0000 -0.0007
vn 1.0000 -0.0000 -0.0000
vn -0.0000 -1.0000 0.0007
vn -1.0000 -0.0000 -0.0000
vt 0.437500 0.687500
vt 0.312500 0.500000
vt 0.562375 0.687500
vt 0.437500 0.500000
vt 0.437500 0.750000
vt 0.625000 0.500000
vt 0.250000 0.500000
vt 0.562500 0.750000
vt 0.500000 0.500000
vt 0.312500 0.687500
vt 0.437500 0.687500
vt 0.312500 0.750000
vt 0.625000 0.687500
vt 0.250000 0.687500
vt 0.437500 0.750000
vt 0.500000 0.687500
vt 0.250000 1.000000
vt 0.125000 0.750000
vt 0.250000 0.875000
vt 0.250000 0.750000
vt 0.375000 1.000000
vt 0.500000 0.750000
vt 0.000000 0.750000
vt 0.375000 0.875000
vt 0.375000 0.750000
vt 0.125000 0.875000
vt 0.250000 0.875000
vt 0.125000 1.000000
vt 0.500000 0.875000
vt 0.000000 0.875000
vt 0.250000 1.000000
vt 0.375000 0.875000
vt 0.687500 0.718755
vt 0.656250 0.537500
vt 0.718750 0.718755
vt 0.687500 0.537500
vt 0.687500 0.750000
vt 0.750000 0.537500
vt 0.625000 0.537500
vt 0.718750 0.750000
vt 0.718750 0.537500
vt 0.656250 0.718755
vt 0.687500 0.718755
vt 0.656250 0.750000
vt 0.750000 0.718755
vt 0.625000 0.718755
vt 0.687500 0.750000
vt 0.718750 0.718755
vt 0.687500 0.718755
vt 0.656250 0.537500
vt 0.718750 0.718755
vt 0.687500 0.537500
vt 0.687500 0.750000
vt 0.750000 0.537500
vt 0.625000 0.537500
vt 0.718750 0.750000
vt 0.718750 0.537500
vt 0.656250 0.718755
vt 0.687500 0.718755
vt 0.656250 0.750000
vt 0.750000 0.718755
vt 0.625000 0.718755
vt 0.687500 0.750000
vt 0.718750 0.718755
vt 0.687500 0.718755
vt 0.656250 0.537500
vt 0.718750 0.718755
vt 0.687500 0.537500
vt 0.687500 0.750000
vt 0.750000 0.537500
vt 0.625000 0.537500
vt 0.718750 0.750000
vt 0.718750 0.537500
vt 0.656250 0.718755
vt 0.687500 0.718755
vt 0.656250 0.750000
vt 0.750000 0.718755
vt 0.625000 0.718755
vt 0.687500 0.750000
vt 0.718750 0.718755
vt 0.687500 0.718755
vt 0.656250 0.537500
vt 0.718750 0.718755
vt 0.687500 0.537500
vt 0.687500 0.750000
vt 0.750000 0.537500
vt 0.625000 0.537500
vt 0.718750 0.750000
vt 0.718750 0.537500
vt 0.656250 0.718755
vt 0.687500 0.718755
vt 0.656250 0.750000
vt 0.750000 0.718755
vt 0.625000 0.718755
vt 0.687500 0.750000
vt 0.718750 0.718755
s 1
usemtl 02_-_Default
f 1/1/1 3/5/1 4/8/1 2/3/1
f 5/10/2 6/11/2 8/15/2 7/12/2
f 1/2/3 2/4/3 6/11/3 5/10/3
f 2/4/4 4/9/4 8/16/4 6/11/4
f 4/9/5 3/6/5 7/13/5 8/16/5
f 3/7/6 1/2/6 5/10/6 7/14/6
f 9/17/1 11/21/1 12/24/1 10/19/1
f 13/26/2 14/27/2 16/31/2 15/28/2
f 9/18/3 10/20/3 14/27/3 13/26/3
f 10/20/4 12/25/4 16/32/4 14/27/4
f 12/25/5 11/22/5 15/29/5 16/32/5
f 11/23/6 9/18/6 13/26/6 15/30/6
f 17/33/1 19/37/1 20/40/1 18/35/1
f 21/42/2 22/43/2 24/47/2 23/44/2
f 17/34/3 18/36/3 22/43/3 21/42/3
f 18/36/4 20/41/4 24/48/4 22/43/4
f 20/41/5 19/38/5 23/45/5 24/48/5
f 19/39/6 17/34/6 21/42/6 23/46/6
f 25/49/1 26/51/1 28/56/1 27/53/1
f 29/58/2 31/60/2 32/63/2 30/59/2
f 25/50/3 29/58/3 30/59/3 26/52/3
f 26/52/6 30/59/6 32/64/6 28/57/6
f 28/57/5 32/64/5 31/61/5 27/54/5
f 27/55/4 31/62/4 29/58/4 25/50/4
f 33/65/1 34/67/1 36/72/1 35/69/1
f 37/74/2 39/76/2 40/79/2 38/75/2
f 33/66/3 37/74/3 38/75/3 34/68/3
f 34/68/6 38/75/6 40/80/6 36/73/6
f 36/73/5 40/80/5 39/77/5 35/70/5
f 35/71/4 39/78/4 37/74/4 33/66/4
f 41/81/1 43/85/1 44/88/1 42/83/1
f 45/90/2 46/91/2 48/95/2 47/92/2
f 41/82/3 42/84/3 46/91/3 45/90/3
f 42/84/4 44/89/4 48/96/4 46/91/4
f 44/89/5 43/86/5 47/93/5 48/96/5
f 43/87/6 41/82/6 45/90/6 47/94/6
